<?xml version="1.0" encoding="UTF-8" standalone="no"?>
<!-- Created with Inkscape (http://www.inkscape.org/) -->

<svg
   xmlns:dc="http://purl.org/dc/elements/1.1/"
   xmlns:cc="http://creativecommons.org/ns#"
   xmlns:rdf="http://www.w3.org/1999/02/22-rdf-syntax-ns#"
   xmlns:svg="http://www.w3.org/2000/svg"
   xmlns="http://www.w3.org/2000/svg"
   xmlns:sodipodi="http://sodipodi.sourceforge.net/DTD/sodipodi-0.dtd"
   xmlns:inkscape="http://www.inkscape.org/namespaces/inkscape"
   width="478.57147"
   height="395.71426"
   id="svg2"
   version="1.1"
   inkscape:version="0.91 r13725"
   sodipodi:docname="eye_closed.svg"
   inkscape:export-filename="D:\Eigene Dateien\Dokumente\Arbeit\workspace\db_webfrontend\public\img\eye_closed.png"
   inkscape:export-xdpi="29.52597"
   inkscape:export-ydpi="29.52597">
  <defs
     id="defs4" />
  <sodipodi:namedview
     id="base"
     pagecolor="#ffffff"
     bordercolor="#666666"
     borderopacity="1.0"
     inkscape:pageopacity="0.0"
     inkscape:pageshadow="2"
     inkscape:zoom="0.7"
     inkscape:cx="-290.54501"
     inkscape:cy="261.08766"
     inkscape:document-units="px"
     inkscape:current-layer="layer1"
     showgrid="false"
     inkscape:window-width="1920"
     inkscape:window-height="1017"
     inkscape:window-x="-8"
     inkscape:window-y="-8"
     inkscape:window-maximized="1"
     fit-margin-top="0"
     fit-margin-left="0"
     fit-margin-right="0"
     fit-margin-bottom="0" />
  <metadata
     id="metadata7">
    <rdf:RDF>
      <cc:Work
         rdf:about="">
        <dc:format>image/svg+xml</dc:format>
        <dc:type
           rdf:resource="http://purl.org/dc/dcmitype/StillImage" />
        <dc:title />
      </cc:Work>
    </rdf:RDF>
  </metadata>
  <g
     inkscape:label="Ebene 1"
     inkscape:groupmode="layer"
     id="layer1"
     transform="translate(-78.571434,-279.50504)">
    <path
       style="fill:#333333;stroke-width:23.5;stroke-miterlimit:4;stroke-dasharray:none"
       d="m 263.17289,488.12665 a 63.463822,63.492929 0 0 0 -2.86297,18.84394 63.463822,63.492929 0 0 0 63.46411,63.49493 63.463822,63.492929 0 0 0 63.46412,-63.49493 63.463822,63.492929 0 0 0 -2.88668,-18.71121 202.13329,89.781367 0 0 1 -59.88303,4.13092 202.13329,89.781367 0 0 1 -61.29555,-4.26365 z"
       id="path3761-5"
       inkscape:connector-curvature="0" />
    <ellipse
       style="fill:#ffffff;stroke-width:23.5;stroke-miterlimit:4;stroke-dasharray:none"
       id="path3761-5-9"
       cx="262.03751"
       cy="499.56772"
       rx="21.409279"
       ry="21.419094" />
    <path
       style="fill:none;fill-opacity:1;stroke:#333333;stroke-width:29;stroke-linecap:butt;stroke-linejoin:miter;stroke-miterlimit:4;stroke-opacity:1;stroke-dasharray:none"
       d="m 488.55154,474.64946 c 0,0 -71.46829,104.08469 -170.47685,104.08469 -99.00857,0 -168.8699,-114.63638 -168.8699,-114.63638 0,0 72.78012,32.72772 171.78869,32.72772 99.00856,0 167.55806,-22.17603 167.55806,-22.17603 z"
       id="path2987"
       inkscape:connector-curvature="0"
       sodipodi:nodetypes="cscsc" />
  </g>
</svg>
